<svg width="81" height="26" viewBox="0 0 81 26" fill="none" xmlns="http://www.w3.org/2000/svg">
<path d="M0 4.62109V21.0431H2.185V14.0281H7.521C8.05767 14.0281 8.487 14.1124 8.809 14.2811C9.131 14.4344 9.39167 14.6491 9.591 14.9251C9.79033 15.1858 9.936 15.5001 10.028 15.8681C10.12 16.2208 10.1967 16.5964 10.258 16.9951C10.3347 17.3938 10.3807 17.8001 10.396 18.2141C10.4113 18.6281 10.4267 19.0191 10.442 19.3871C10.4573 19.7398 10.488 20.0618 10.534 20.3531C10.5953 20.6444 10.7027 20.8744 10.856 21.0431H13.294C13.064 20.7671 12.8877 20.4528 12.765 20.1001C12.6577 19.7321 12.5733 19.3488 12.512 18.9501C12.4507 18.5514 12.4123 18.1451 12.397 17.7311C12.3817 17.3171 12.3587 16.9108 12.328 16.5121C12.282 16.1134 12.213 15.7301 12.121 15.3621C12.0443 14.9941 11.914 14.6644 11.73 14.3731C11.5613 14.0664 11.3237 13.8058 11.017 13.5911C10.7257 13.3764 10.3423 13.2231 9.867 13.1311V13.0851C10.8637 12.8091 11.5843 12.2954 12.029 11.5441C12.489 10.7928 12.719 9.91876 12.719 8.92209C12.719 7.58809 12.2743 6.53776 11.385 5.77109C10.511 5.00443 9.292 4.62109 7.728 4.62109H0ZM6.739 12.1881H2.185V6.46109H7.613C8.64033 6.46109 9.384 6.72176 9.844 7.24309C10.304 7.76443 10.534 8.43909 10.534 9.26709C10.534 9.86509 10.4267 10.3558 10.212 10.7391C10.0127 11.1071 9.73667 11.4061 9.384 11.6361C9.04667 11.8508 8.648 11.9964 8.188 12.0731C7.728 12.1498 7.245 12.1881 6.739 12.1881Z" fill="black"/>
<path d="M15.7221 4.62109V21.0431H17.7921V7.86409H17.8381L26.4171 21.0431H28.8091V4.62109H26.7391V17.9381H26.6931L18.0451 4.62109H15.7221Z" fill="black"/>
<path d="M34.5288 11.6821V6.46109H38.8988C39.3741 6.46109 39.8188 6.49176 40.2328 6.55309C40.6621 6.59909 41.0378 6.71409 41.3598 6.89809C41.6818 7.08209 41.9348 7.34276 42.1188 7.68009C42.3028 8.01743 42.3948 8.47743 42.3948 9.06009C42.3948 9.93409 42.1188 10.5934 41.5668 11.0381C41.0301 11.4674 40.1408 11.6821 38.8988 11.6821H34.5288ZM32.3438 4.62109V21.0431H40.2788C41.0914 21.0431 41.8044 20.9128 42.4178 20.6521C43.0464 20.3761 43.5678 20.0234 43.9818 19.5941C44.4111 19.1494 44.7331 18.6434 44.9478 18.0761C45.1624 17.5088 45.2698 16.9261 45.2698 16.3281C45.2698 15.3161 45.0014 14.4574 44.4648 13.7521C43.9281 13.0468 43.1538 12.5868 42.1418 12.3721V12.3261C42.9238 12.0194 43.5218 11.5518 43.9358 10.9231C44.3651 10.2791 44.5798 9.52009 44.5798 8.64609C44.5798 7.81809 44.3881 7.12043 44.0048 6.55309C43.6368 5.98576 43.1844 5.54109 42.6478 5.21909C42.4024 5.06576 42.1034 4.95076 41.7508 4.87409C41.4134 4.79743 41.0454 4.74376 40.6468 4.71309C40.2481 4.66709 39.8418 4.64409 39.4277 4.64409C39.0291 4.62876 38.6534 4.62109 38.3008 4.62109H32.3438ZM34.5288 19.2031V13.5221H39.5198C39.9798 13.5221 40.4244 13.5681 40.8538 13.6601C41.2831 13.7368 41.6588 13.8824 41.9808 14.0971C42.3181 14.2964 42.5864 14.5724 42.7858 14.9251C42.9851 15.2778 43.0848 15.7224 43.0848 16.2591C43.0848 17.1791 42.8088 17.8998 42.2568 18.4211C41.7201 18.9424 40.9688 19.2031 40.0028 19.2031H34.5288Z" fill="black"/>
<path d="M53.064 7.24219H57.688V8.10619H55.872V12.9542H54.872V8.10619H53.064V7.24219Z" fill="black"/>
<path d="M58.3502 7.24219H62.4622V8.10619H59.3502V9.60219H62.2302V10.4182H59.3502V12.0902H62.5182V12.9542H58.3502V7.24219Z" fill="black"/>
<path d="M64.9172 7.24219H65.9812L68.1812 12.9542H67.1092L66.5732 11.4422H64.2932L63.7572 12.9542H62.7252L64.9172 7.24219ZM64.5652 10.6822H66.3092L65.4532 8.22619H65.4292L64.5652 10.6822Z" fill="black"/>
<path d="M68.7092 7.24219H70.1172L71.6932 11.7142H71.7092L73.2452 7.24219H74.6372V12.9542H73.6852V8.54619H73.6692L72.0852 12.9542H71.2612L69.6772 8.54619H69.6612V12.9542H68.7092V7.24219Z" fill="black"/>
<rect x="49" y="2.95508" width="31" height="14" rx="7" stroke="black" stroke-width="0.8"/>
</svg>
