<?xml version="1.0" encoding="utf-8"?>
<!-- Generator: Adobe Illustrator 25.1.0, SVG Export Plug-In . SVG Version: 6.00 Build 0)  -->
<svg version="1.1" id="Ebene_1" xmlns="http://www.w3.org/2000/svg" xmlns:xlink="http://www.w3.org/1999/xlink" x="0px" y="0px"
	 viewBox="0 0 63 63" style="enable-background:new 0 0 63 63;" xml:space="preserve">
<style type="text/css">
	.st0{fill:#fff;}
</style>
<g>
	<path class="st0" d="M25.5,18.5c0.4-0.4,0.4-1,0-1.4L8.7,0.3C8.5,0.1,8.2,0,8,0C7.7,0,7.4,0.1,7.3,0.3C2.4,5.2,0,11.5,0,17.9
		c0,6.3,2.4,12.6,7.3,17.4l20.4,20.4c4.8,4.8,11.1,7.3,17.4,7.3c6.4,0,12.8-2.4,17.6-7.3c0.4-0.4,0.4-1,0-1.4L45.9,37.5
		c-0.2-0.2-0.5-0.3-0.7-0.3c-0.3,0-0.5,0.1-0.7,0.3l-7.7,7.7l-19-19L25.5,18.5z M36.1,47.4c0.2,0.2,0.5,0.3,0.7,0.3
		c0.3,0,0.5-0.1,0.7-0.3l7.7-7.7L60.5,55c-4.4,4-9.9,6-15.5,6c-5.8,0-11.5-2.2-15.9-6.7L8.7,33.9C4.3,29.4,2,23.7,2,17.9
		C2,12.4,4,6.8,8,2.5l15.3,15.3l-7.7,7.7c-0.2,0.2-0.3,0.4-0.3,0.7s0.1,0.5,0.3,0.7L36.1,47.4z"/>
</g>
</svg>
