<svg width="13" height="14" viewBox="0 0 13 14" fill="none" xmlns="http://www.w3.org/2000/svg">
<g clip-path="url(#clip0_3092_9895)">
<path fill-rule="evenodd" clip-rule="evenodd" d="M1.45928 5.37502C1.45928 3.48128 2.99446 1.94609 4.8882 1.94609C6.78195 1.94609 8.31713 3.48128 8.31713 5.37502C8.31713 6.16241 8.05173 6.88781 7.60551 7.46665C7.53364 7.50885 7.46591 7.56078 7.40424 7.62246C7.32109 7.70561 7.25564 7.79976 7.2079 7.90023C6.59737 8.46136 5.78279 8.80394 4.8882 8.80394C2.99446 8.80394 1.45928 7.26876 1.45928 5.37502ZM7.53831 9.17075C6.78759 9.69587 5.87388 10.0039 4.8882 10.0039C2.33172 10.0039 0.259277 7.9315 0.259277 5.37502C0.259277 2.81853 2.33172 0.746094 4.8882 0.746094C7.44469 0.746094 9.51713 2.81853 9.51713 5.37502C9.51713 6.22139 9.28998 7.0147 8.89331 7.69732L12.5788 11.3828C12.9693 11.7733 12.9693 12.4065 12.5788 12.797C12.1883 13.1875 11.5551 13.1875 11.1646 12.797L7.53831 9.17075Z" fill="black"/>
</g>
<defs>
<clipPath id="clip0_3092_9895">
<rect width="13" height="13" fill="white" transform="translate(0 0.5)"/>
</clipPath>
</defs>
</svg>
