<svg width="92" height="18" viewBox="0 0 92 18" fill="none" xmlns="http://www.w3.org/2000/svg">
<path d="M7.67953 1.89511C8.04635 1.15186 9.10619 1.15187 9.47301 1.89511L10.8641 4.71378C11.0098 5.00892 11.2913 5.21349 11.617 5.26082L14.7276 5.71282C15.5478 5.832 15.8754 6.83997 15.2818 7.41851L13.031 9.61254C12.7953 9.84227 12.6878 10.1733 12.7434 10.4977L13.2748 13.5957C13.4149 14.4126 12.5574 15.0356 11.8238 14.6499L9.04161 13.1872C8.75029 13.034 8.40225 13.034 8.11093 13.1872L5.32874 14.6499C4.59511 15.0356 3.73768 14.4126 3.87779 13.5957L4.40914 10.4977C4.46478 10.1733 4.35723 9.84227 4.12154 9.61254L1.8707 7.41851C1.27718 6.83997 1.60469 5.832 2.42492 5.71282L5.5355 5.26082C5.86121 5.21349 6.14278 5.00892 6.28844 4.71378L7.67953 1.89511Z" fill="white" fill-opacity="0.35"/>
<path d="M26.3914 1.89511C26.7583 1.15186 27.8181 1.15187 28.1849 1.89511L29.576 4.71378C29.7217 5.00892 30.0032 5.21349 30.329 5.26082L33.4395 5.71282C34.2598 5.832 34.5873 6.83997 33.9938 7.41851L31.7429 9.61254C31.5072 9.84227 31.3997 10.1733 31.4553 10.4977L31.9867 13.5957C32.1268 14.4126 31.2693 15.0356 30.5357 14.6499L27.7535 13.1872C27.4622 13.034 27.1142 13.034 26.8228 13.1872L24.0407 14.6499C23.307 15.0356 22.4496 14.4126 22.5897 13.5957L23.1211 10.4977C23.1767 10.1733 23.0691 9.84227 22.8335 9.61254L20.5826 7.41851C19.9891 6.83997 20.3166 5.832 21.1368 5.71282L24.2474 5.26082C24.5731 5.21349 24.8547 5.00892 25.0004 4.71378L26.3914 1.89511Z" fill="white" fill-opacity="0.35"/>
<path d="M45.1034 1.89511C45.4702 1.15186 46.53 1.15187 46.8968 1.89511L48.2879 4.71378C48.4336 5.00892 48.7152 5.21349 49.0409 5.26082L52.1515 5.71282C52.9717 5.832 53.2992 6.83997 52.7057 7.41851L50.4548 9.61254C50.2191 9.84227 50.1116 10.1733 50.1672 10.4977L50.6986 13.5957C50.8387 14.4126 49.9813 15.0356 49.2476 14.6499L46.4654 13.1872C46.1741 13.034 45.8261 13.034 45.5348 13.1872L42.7526 14.6499C42.0189 15.0356 41.1615 14.4126 41.3016 13.5957L41.833 10.4977C41.8886 10.1733 41.7811 9.84227 41.5454 9.61254L39.2945 7.41851C38.701 6.83997 39.0285 5.832 39.8487 5.71282L42.9593 5.26082C43.285 5.21349 43.5666 5.00892 43.7123 4.71378L45.1034 1.89511Z" fill="white" fill-opacity="0.35"/>
<path d="M63.8153 1.89511C64.1821 1.15186 65.2419 1.15187 65.6087 1.89511L66.9998 4.71378C67.1455 5.00892 67.4271 5.21349 67.7528 5.26082L70.8634 5.71282C71.6836 5.832 72.0111 6.83997 71.4176 7.41851L69.1667 9.61254C68.9311 9.84227 68.8235 10.1733 68.8791 10.4977L69.4105 13.5957C69.5506 14.4126 68.6932 15.0356 67.9595 14.6499L65.1774 13.1872C64.886 13.034 64.538 13.034 64.2467 13.1872L61.4645 14.6499C60.7309 15.0356 59.8734 14.4126 60.0135 13.5957L60.5449 10.4977C60.6005 10.1733 60.493 9.84227 60.2573 9.61254L58.0064 7.41851C57.4129 6.83997 57.7404 5.832 58.5607 5.71282L61.6712 5.26082C61.997 5.21349 62.2785 5.00892 62.4242 4.71378L63.8153 1.89511Z" fill="white" fill-opacity="0.35"/>
<path d="M82.5272 1.89511C82.894 1.15186 83.9538 1.15187 84.3207 1.89511L85.7118 4.71378C85.8574 5.00892 86.139 5.21349 86.4647 5.26082L89.5753 5.71282C90.3955 5.832 90.723 6.83997 90.1295 7.41851L87.8787 9.61254C87.643 9.84227 87.5354 10.1733 87.5911 10.4977L88.1224 13.5957C88.2625 14.4126 87.4051 15.0356 86.6715 14.6499L83.8893 13.1872C83.5979 13.034 83.2499 13.034 82.9586 13.1872L80.1764 14.6499C79.4428 15.0356 78.5853 14.4126 78.7254 13.5957L79.2568 10.4977C79.3124 10.1733 79.2049 9.84227 78.9692 9.61254L76.7184 7.41851C76.1248 6.83997 76.4524 5.832 77.2726 5.71282L80.3832 5.26082C80.7089 5.21349 80.9904 5.00892 81.1361 4.71378L82.5272 1.89511Z" fill="white" fill-opacity="0.35"/>
</svg>
