<svg width="42" height="48" viewBox="0 0 42 48" fill="none" xmlns="http://www.w3.org/2000/svg">
<path d="M32.8276 33.3103C30.4138 35.2414 27.0345 36.6896 23.6552 36.6896C15.931 36.6896 10.6207 30.8965 10.6207 23.1724C10.6207 15.4483 15.931 10.1379 23.6552 10.1379C27.0345 10.1379 30.4138 11.1034 32.8276 13.5172L34.2759 14.9655L42 7.72413L40.069 6.27585C35.7241 2.41378 29.931 0 23.6552 0C10.1379 0 0 10.1379 0 23.6552C0 37.1724 10.1379 47.3103 23.6552 47.3103C29.931 47.3103 35.7241 44.8966 40.069 41.0345L42 39.5862L34.2759 31.8621L32.8276 33.3103Z" fill="#D6D6D6"/>
<path d="M23.1734 31.378C27.4393 31.378 30.8975 27.9198 30.8975 23.6538C30.8975 19.3879 27.4393 15.9297 23.1734 15.9297C18.9074 15.9297 15.4492 19.3879 15.4492 23.6538C15.4492 27.9198 18.9074 31.378 23.1734 31.378Z" fill="#636363"/>
</svg>
