<svg width="312" height="243" viewBox="0 0 312 243" fill="none" xmlns="http://www.w3.org/2000/svg">
<g style="mix-blend-mode:luminosity" opacity="0.25">
<path opacity="0.4" d="M167.086 223.159C147.219 223.159 127.351 218.798 112.231 210.062C97.5204 201.573 89.4166 190.253 89.4166 178.209C89.4166 166.164 97.5204 154.845 112.231 146.355C142.483 128.897 191.69 128.897 221.941 146.355C236.652 154.845 244.756 166.164 244.756 178.209C244.756 190.253 236.652 201.561 221.941 210.062C206.821 218.798 186.954 223.159 167.086 223.159ZM167.086 133.878C147.335 133.878 127.585 138.216 112.547 146.893C98.0349 155.266 90.0481 166.387 90.0481 178.197C90.0481 190.008 98.0349 201.128 112.547 209.501C142.623 226.866 191.549 226.866 221.625 209.501C236.137 201.128 244.124 190.008 244.124 178.197C244.124 166.387 236.137 155.266 221.625 146.893C206.587 138.216 186.837 133.866 167.086 133.866V133.878Z" fill="#42E8E0"/>
<path opacity="0.2" d="M167.086 235.192C141.874 235.192 116.675 229.649 97.4735 218.576C78.8221 207.806 68.5433 193.469 68.5433 178.209C68.5433 162.949 78.8104 148.612 97.4618 137.842C135.84 115.683 198.296 115.683 236.675 137.842C255.327 148.612 265.605 162.949 265.605 178.209C265.605 193.469 255.338 207.806 236.687 218.576C217.497 229.649 192.286 235.192 167.086 235.192ZM167.086 121.834C141.991 121.834 116.897 127.353 97.8009 138.38C79.3483 149.033 69.1982 163.171 69.1982 178.197C69.1982 193.224 79.36 207.373 97.8126 218.014C136.016 240.068 198.18 240.068 236.394 218.014C254.847 207.361 264.997 193.224 264.997 178.197C264.997 163.171 254.835 149.021 236.383 138.38C217.275 127.353 192.181 121.834 167.098 121.834H167.086Z" fill="#42E8E0"/>
<path d="M167.086 213.676C151.428 213.676 135.77 210.238 123.854 203.35C112.243 196.65 105.858 187.716 105.858 178.209C105.858 168.702 112.254 159.768 123.854 153.067C147.698 139.304 186.486 139.304 210.318 153.067C221.929 159.768 228.314 168.702 228.314 178.209C228.314 187.716 221.918 196.65 210.318 203.35C198.402 210.226 182.744 213.676 167.086 213.676ZM167.086 143.373C151.545 143.373 136.004 146.788 124.17 153.617C112.769 160.201 106.489 168.936 106.489 178.209C106.489 187.482 112.769 196.217 124.17 202.801C147.838 216.459 186.334 216.459 210.002 202.801C221.403 196.217 227.683 187.482 227.683 178.209C227.683 168.936 221.403 160.201 210.002 153.617C198.168 146.788 182.627 143.373 167.086 143.373Z" fill="#42E8E0"/>
<path d="M235.33 92.7365L235.014 93.2834L237.04 94.4525L237.355 93.9055L235.33 92.7365Z" fill="#42E8E0"/>
<path d="M231.331 91.173L227.636 89.033L227.952 88.4834L231.647 90.6234L231.331 91.173ZM223.929 86.9048L220.234 84.7648L220.549 84.2152L224.245 86.3552L223.929 86.9048ZM216.527 82.6366L212.82 80.4966L213.136 79.947L216.831 82.087L216.515 82.6366H216.527ZM209.125 78.3684L205.43 76.2285L205.745 75.6788L209.44 77.8188L209.125 78.3684ZM201.723 74.1002L198.027 71.9602L198.343 71.4106L202.038 73.5506L201.723 74.1002Z" fill="#42E8E0"/>
<path d="M192.623 68.098L192.307 68.6448L194.332 69.8145L194.648 69.2677L192.623 68.098Z" fill="#42E8E0"/>
<g opacity="0.3">
<path d="M311.994 151.115V142.929L309.726 141.666C309.082 145.537 304.534 148.074 300.733 148.612L274.832 163.756L263.524 167.837L227.449 149.22L228.279 148.741C225.192 147.303 223.531 144.005 221.871 141L219.439 142.45L218 142.859V151.255C218 152.857 219.053 154.459 221.169 155.687L257.315 176.549C261.548 178.993 268.435 178.993 272.668 176.549L308.814 155.687C310.895 154.483 311.947 152.916 311.982 151.337C311.982 151.267 311.982 151.197 311.982 151.126L311.994 151.115Z" fill="url(#paint0_linear_367_121)"/>
<path opacity="0.3" d="M300.733 148.601L274.832 163.744L264.997 167.299V178.373C267.78 178.373 270.552 177.765 272.668 176.537L308.814 155.675C310.895 154.471 311.947 152.904 311.983 151.325C311.983 151.255 311.983 151.185 311.983 151.115V142.929L309.913 141.783H309.691C308.989 145.584 304.487 148.086 300.722 148.612L300.733 148.601Z" fill="#0F054C"/>
<path d="M257.326 168.223L221.181 147.349C216.948 144.905 216.948 140.93 221.181 138.486L257.326 117.624C261.559 115.18 268.447 115.18 272.68 117.624L308.825 138.486C313.058 140.93 313.058 144.905 308.825 147.349L272.68 168.211C268.447 170.655 261.559 170.655 257.326 168.211V168.223Z" fill="url(#paint1_linear_367_121)"/>
<g opacity="0.3">
<path d="M257.326 168.223L221.181 147.349C216.948 144.905 216.948 140.93 221.181 138.486L257.326 117.624C261.559 115.18 268.447 115.18 272.68 117.624L308.825 138.486C313.058 140.93 313.058 144.905 308.825 147.349L272.68 168.211C268.447 170.655 261.559 170.655 257.326 168.211V168.223Z" fill="#0F054C"/>
</g>
</g>
<path d="M264.997 141.842C262.53 141.842 260.063 141.304 258.18 140.216L222.035 119.343C220.164 118.255 219.123 116.794 219.123 115.227C219.123 113.66 220.152 112.198 222.035 111.111L258.18 90.249C261.934 88.0856 268.049 88.0856 271.803 90.249L307.948 111.122C309.819 112.21 310.86 113.671 310.86 115.238C310.86 116.805 309.831 118.267 307.948 119.355L271.803 140.216C269.92 141.304 267.453 141.842 264.986 141.842H264.997ZM264.997 89.2433C262.647 89.2433 260.296 89.7578 258.507 90.7986L222.362 111.66C220.69 112.631 219.766 113.894 219.766 115.227C219.766 116.56 220.69 117.823 222.362 118.793L258.507 139.666C262.086 141.736 267.921 141.736 271.499 139.666L307.644 118.805C309.316 117.834 310.24 116.571 310.24 115.238C310.24 113.905 309.316 112.642 307.644 111.672L271.499 90.7986C269.71 89.7695 267.359 89.2433 265.009 89.2433H264.997Z" fill="#42E8E0"/>
<path opacity="0.4" d="M311.994 107.228V94.8565L309.726 93.5935C309.082 97.4641 304.534 100.002 300.733 100.54L274.832 115.683L263.524 119.764L227.449 101.148L228.279 100.668C225.192 99.2299 223.531 95.9323 221.871 92.927L219.439 94.377L218 94.7863V107.369C218 108.971 219.053 110.573 221.169 111.801L257.315 132.662C261.548 135.106 268.435 135.106 272.668 132.662L308.814 111.801C310.895 110.596 311.947 109.029 311.982 107.451C311.982 107.38 311.982 107.31 311.982 107.24L311.994 107.228Z" fill="#42E8E0"/>
<path d="M311.994 96.2246V88.0391L309.726 86.7761C309.082 90.6468 304.534 93.1843 300.733 93.7222L274.832 108.866L263.524 112.947L227.449 94.3303L228.279 93.8508C225.192 92.4125 223.531 89.1149 221.871 86.1096L219.439 87.5596L218 87.9689V96.365C218 97.967 219.053 99.569 221.169 100.797L257.315 121.658C261.548 124.102 268.435 124.102 272.668 121.658L308.814 100.797C310.895 99.5924 311.947 98.0255 311.982 96.4468C311.982 96.3767 311.982 96.3065 311.982 96.2364L311.994 96.2246Z" fill="url(#paint2_linear_367_121)"/>
<path opacity="0.3" d="M300.733 93.7222L274.832 108.866L264.997 112.42V123.494C267.78 123.494 270.552 122.886 272.668 121.658L308.814 100.797C310.895 99.5924 311.947 98.0255 311.983 96.4468C311.983 96.3767 311.983 96.3065 311.983 96.2364V88.0508L309.913 86.9048H309.691C308.989 90.7052 304.487 93.2077 300.722 93.7339L300.733 93.7222Z" fill="#0F054C"/>
<path d="M257.326 113.332L221.181 92.4709C216.948 90.0269 216.948 86.0511 221.181 83.6071L257.326 62.7456C261.559 60.3016 268.447 60.3016 272.68 62.7456L308.825 83.6071C313.058 86.0511 313.058 90.0269 308.825 92.4709L272.68 113.332C268.447 115.776 261.559 115.776 257.326 113.332Z" fill="url(#paint3_linear_367_121)"/>
<path d="M308.813 92.4709L272.668 113.332C268.435 115.776 261.548 115.776 257.314 113.332L221.169 92.4709C219.275 91.3833 218.234 89.9801 218.035 88.5535C217.79 90.3192 218.831 92.1434 221.169 93.4999L257.314 114.373C261.548 116.817 268.435 116.817 272.668 114.373L308.813 93.5116C311.152 92.1551 312.193 90.3426 311.947 88.5652C311.749 89.9918 310.708 91.395 308.813 92.4825V92.4709Z" fill="white"/>
<path d="M98.5844 95.3006L98.2687 94.751L143.009 68.9197L143.336 69.4693L98.5844 95.3006Z" fill="#42E8E0"/>
<g opacity="0.3">
<path d="M117.236 151.115V142.929L114.967 141.666C114.324 145.537 109.775 148.074 105.975 148.612L80.0734 163.756L68.7656 167.837L32.6906 149.22L33.5208 148.741C30.4337 147.303 28.7732 144.005 27.1127 141L24.6804 142.45L23.2421 142.859V151.255C23.2421 152.857 24.2945 154.459 26.4111 155.687L62.5562 176.549C66.7893 178.993 73.6769 178.993 77.91 176.549L114.055 155.687C116.137 154.483 117.189 152.916 117.224 151.337C117.224 151.267 117.224 151.197 117.224 151.126L117.236 151.115Z" fill="url(#paint4_linear_367_121)"/>
<path opacity="0.3" d="M105.975 148.601L80.0733 163.744L70.2389 167.299V178.373C73.022 178.373 75.7934 177.765 77.9099 176.537L114.055 155.675C116.137 154.471 117.189 152.904 117.224 151.325C117.224 151.255 117.224 151.185 117.224 151.115V142.929L115.154 141.783H114.932C114.231 145.584 109.728 148.086 105.963 148.612L105.975 148.601Z" fill="#0F054C"/>
<path d="M62.5679 168.223L26.4228 147.349C22.1896 144.905 22.1896 140.93 26.4228 138.486L62.5679 117.624C66.8011 115.18 73.6886 115.18 77.9217 117.624L114.067 138.486C118.3 140.93 118.3 144.905 114.067 147.349L77.9217 168.211C73.6886 170.655 66.8011 170.655 62.5679 168.211V168.223Z" fill="url(#paint5_linear_367_121)"/>
<g opacity="0.3">
<path d="M62.5679 168.223L26.4228 147.349C22.1896 144.905 22.1896 140.93 26.4228 138.486L62.5679 117.624C66.8011 115.18 73.6886 115.18 77.9217 117.624L114.067 138.486C118.3 140.93 118.3 144.905 114.067 147.349L77.9217 168.211C73.6886 170.655 66.8011 170.655 62.5679 168.211V168.223Z" fill="#0F054C"/>
</g>
</g>
<path d="M70.2389 141.842C67.7716 141.842 65.3042 141.304 63.4215 140.216L27.2764 119.343C25.4054 118.255 24.3646 116.794 24.3646 115.227C24.3646 113.66 25.3937 112.198 27.2764 111.111L63.4215 90.249C67.1752 88.0856 73.291 88.0856 77.0447 90.249L113.19 111.122C115.061 112.21 116.102 113.671 116.102 115.238C116.102 116.805 115.073 118.267 113.19 119.355L77.0447 140.216C75.162 141.304 72.6946 141.842 70.2273 141.842H70.2389ZM63.749 139.666C67.3272 141.736 73.1624 141.736 76.7406 139.666L112.886 118.805C114.558 117.834 115.482 116.571 115.482 115.238C115.482 113.905 114.558 112.642 112.886 111.672L76.7406 90.7986C73.1624 88.7288 67.3272 88.7288 63.749 90.7986L27.6038 111.66C25.9316 112.631 25.0078 113.894 25.0078 115.227C25.0078 116.56 25.9316 117.823 27.6038 118.793L63.749 139.666Z" fill="#42E8E0"/>
<path opacity="0.4" d="M117.236 107.228V94.8565L114.967 93.5935C114.324 97.4641 109.775 100.002 105.975 100.54L80.0734 115.683L68.7656 119.764L32.6906 101.148L33.5208 100.668C30.4337 99.2299 28.7732 95.9323 27.1127 92.927L24.6804 94.377L23.2421 94.7863V107.369C23.2421 108.971 24.2945 110.573 26.4111 111.801L62.5562 132.662C66.7893 135.106 73.6769 135.106 77.91 132.662L114.055 111.801C116.137 110.596 117.189 109.029 117.224 107.451C117.224 107.38 117.224 107.31 117.224 107.24L117.236 107.228Z" fill="#42E8E0"/>
<path d="M117.236 96.2246V88.0391L114.967 86.7761C114.324 90.6468 109.775 93.1843 105.975 93.7222L80.0734 108.866L68.7656 112.947L32.6906 94.3303L33.5208 93.8508C30.4337 92.4125 28.7732 89.1149 27.1127 86.1096L24.6804 87.5596L23.2421 87.9689V96.365C23.2421 97.967 24.2945 99.569 26.4111 100.797L62.5562 121.658C66.7893 124.102 73.6769 124.102 77.91 121.658L114.055 100.797C116.137 99.5924 117.189 98.0255 117.224 96.4468C117.224 96.3767 117.224 96.3065 117.224 96.2364L117.236 96.2246Z" fill="url(#paint6_linear_367_121)"/>
<path opacity="0.3" d="M105.975 93.7222L80.0733 108.866L70.2389 112.42V123.494C73.022 123.494 75.7934 122.886 77.9099 121.658L114.055 100.797C116.137 99.5924 117.189 98.0255 117.224 96.4468C117.224 96.3767 117.224 96.3065 117.224 96.2364V88.0508L115.154 86.9048H114.932C114.231 90.7052 109.728 93.2077 105.963 93.7339L105.975 93.7222Z" fill="#0F054C"/>
<path d="M62.5678 113.332L26.4226 92.4709C22.1895 90.0269 22.1895 86.0511 26.4226 83.6071L62.5678 62.7456C66.8009 60.3016 73.6885 60.3016 77.9216 62.7456L114.067 83.6071C118.3 86.0511 118.3 90.0269 114.067 92.4709L77.9216 113.332C73.6885 115.776 66.8009 115.776 62.5678 113.332Z" fill="url(#paint7_linear_367_121)"/>
<path d="M62.5678 113.332L26.4226 92.4709C22.1895 90.0269 22.1895 86.0511 26.4226 83.6071L62.5678 62.7456C66.8009 60.3016 73.6885 60.3016 77.9216 62.7456L114.067 83.6071C118.3 86.0511 118.3 90.0269 114.067 92.4709L77.9216 113.332C73.6885 115.776 66.8009 115.776 62.5678 113.332Z" fill="#24126A"/>
<g opacity="0.51">
<path d="M62.5678 113.332L26.4226 92.4709C22.1895 90.0269 22.1895 86.0511 26.4226 83.6071L62.5678 62.7456C66.8009 60.3016 73.6885 60.3016 77.9216 62.7456L114.067 83.6071C118.3 86.0511 118.3 90.0269 114.067 92.4709L77.9216 113.332C73.6885 115.776 66.8009 115.776 62.5678 113.332Z" fill="#453C9E"/>
</g>
<path d="M114.055 92.4709L77.91 113.332C73.6769 115.776 66.7893 115.776 62.5562 113.332L26.411 92.4709C24.5166 91.3833 23.4759 89.9801 23.2771 88.5535C23.0315 90.3192 24.0723 92.1434 26.411 93.4999L62.5562 114.373C66.7893 116.817 73.6769 116.817 77.91 114.373L114.055 93.5116C116.394 92.1551 117.435 90.3426 117.189 88.5652C116.99 89.9918 115.95 91.395 114.055 92.4825V92.4709Z" fill="white"/>
<path d="M196.519 156.225L196.203 155.687L198.226 154.518L198.542 155.056L196.519 156.225Z" fill="#42E8E0"/>
<path d="M202.249 152.927L201.933 152.378L205.628 150.238L205.944 150.787L202.249 152.927ZM209.651 148.659L209.335 148.11L213.03 145.97L213.346 146.519L209.651 148.659ZM217.053 144.391L216.737 143.841L220.433 141.701L220.748 142.251L217.053 144.391ZM224.455 140.123L224.139 139.573L227.835 137.433L228.15 137.983L224.455 140.123ZM231.857 135.855L231.542 135.305L235.237 133.165L235.552 133.715L231.857 135.855Z" fill="#42E8E0"/>
<path d="M239.248 131.563L238.932 131.013L240.955 129.844L241.271 130.394L239.248 131.563Z" fill="#42E8E0"/>
<g opacity="0.3">
<path d="M214.071 215.173V206.987L211.803 205.724C211.16 209.595 206.611 212.133 202.81 212.67L176.909 227.814L165.601 231.895L129.526 213.279L130.356 212.799C127.269 211.361 125.609 208.063 123.948 205.058L121.516 206.508L120.077 206.917V215.313C120.077 216.915 121.13 218.517 123.246 219.745L159.392 240.618C163.625 243.062 170.512 243.062 174.745 240.618L210.891 219.757C212.972 218.552 214.024 216.985 214.06 215.407C214.06 215.337 214.06 215.266 214.06 215.196L214.071 215.173Z" fill="url(#paint8_linear_367_121)"/>
<path opacity="0.3" d="M202.822 212.67L176.92 227.814L167.086 231.369V242.443C169.869 242.443 172.64 241.834 174.757 240.607L210.902 219.745C212.984 218.541 214.036 216.974 214.071 215.395C214.071 215.325 214.071 215.255 214.071 215.185V206.999L212.001 205.853H211.779C211.078 209.653 206.576 212.156 202.81 212.682L202.822 212.67Z" fill="#0F054C"/>
<path d="M159.403 232.281L123.258 211.419C119.025 208.975 119.025 204.999 123.258 202.555L159.403 181.694C163.636 179.25 170.524 179.25 174.757 181.694L210.902 202.567C215.135 205.011 215.135 208.987 210.902 211.431L174.757 232.292C170.524 234.736 163.636 234.736 159.403 232.292V232.281Z" fill="url(#paint9_linear_367_121)"/>
<g opacity="0.3">
<path d="M159.403 232.281L123.258 211.419C119.025 208.975 119.025 204.999 123.258 202.555L159.403 181.694C163.636 179.25 170.524 179.25 174.757 181.694L210.902 202.567C215.135 205.011 215.135 208.987 210.902 211.431L174.757 232.292C170.524 234.736 163.636 234.736 159.403 232.292V232.281Z" fill="#0F054C"/>
</g>
</g>
<path d="M167.086 201.924C164.619 201.924 162.151 201.386 160.269 200.298L124.123 179.437C122.252 178.349 121.212 176.887 121.212 175.32C121.212 173.753 122.241 172.292 124.123 171.204L160.269 150.343C164.022 148.168 170.138 148.168 173.892 150.343L210.037 171.204C211.908 172.292 212.949 173.753 212.949 175.32C212.949 176.887 211.92 178.349 210.037 179.437L173.892 200.298C172.009 201.386 169.542 201.924 167.074 201.924H167.086ZM167.086 149.325C164.736 149.325 162.385 149.84 160.596 150.881L124.451 171.742C122.779 172.713 121.855 173.976 121.855 175.309C121.855 176.642 122.779 177.905 124.451 178.875L160.596 199.737C164.174 201.807 170.009 201.807 173.588 199.737L209.733 178.875C211.405 177.905 212.329 176.642 212.329 175.309C212.329 173.976 211.405 172.701 209.733 171.742L173.588 150.881C171.799 149.852 169.448 149.325 167.098 149.325H167.086Z" fill="#42E8E0"/>
<path opacity="0.4" d="M214.071 167.31V154.939L211.803 153.676C211.16 157.546 206.611 160.084 202.81 160.622L176.909 175.765L165.601 179.846L129.526 161.23L130.356 160.75C127.269 159.312 125.609 156.014 123.948 153.009L121.516 154.459L120.077 154.868V167.451C120.077 169.053 121.13 170.655 123.246 171.883L159.392 192.756C163.625 195.2 170.512 195.2 174.745 192.756L210.891 171.894C212.972 170.69 214.024 169.123 214.06 167.544C214.06 167.474 214.06 167.404 214.06 167.334L214.071 167.31Z" fill="#42E8E0"/>
<path d="M214.071 156.307V148.121L211.803 146.858C211.16 150.729 206.611 153.266 202.81 153.804L176.909 168.948L165.601 173.029L129.526 154.412L130.356 153.933C127.269 152.495 125.609 149.197 123.948 146.192L121.516 147.642L120.077 148.051V156.447C120.077 158.049 121.13 159.651 123.246 160.879L159.392 181.74C163.625 184.184 170.512 184.184 174.745 181.74L210.891 160.879C212.972 159.674 214.024 158.108 214.06 156.529C214.06 156.459 214.06 156.389 214.06 156.318L214.071 156.307Z" fill="url(#paint10_linear_367_121)"/>
<path opacity="0.3" d="M202.822 153.793L176.92 168.936L167.086 172.491V183.565C169.869 183.565 172.64 182.957 174.757 181.729L210.902 160.867C212.984 159.663 214.036 158.096 214.071 156.517C214.071 156.447 214.071 156.377 214.071 156.307V148.121L212.001 146.975H211.779C211.078 150.776 206.576 153.278 202.81 153.804L202.822 153.793Z" fill="#0F054C"/>
<path d="M159.403 173.415L123.258 152.553C119.025 150.109 119.025 146.133 123.258 143.689L159.403 122.828C163.636 120.384 170.524 120.384 174.757 122.828L210.902 143.689C215.135 146.133 215.135 150.109 210.902 152.553L174.757 173.415C170.524 175.858 163.636 175.858 159.403 173.415Z" fill="url(#paint11_linear_367_121)"/>
<path d="M167.086 169.626C164.853 169.626 162.631 169.135 160.935 168.152L132.695 151.851C130.999 150.869 130.064 149.548 130.052 148.121C130.052 146.694 130.988 145.361 132.695 144.379L160.935 128.078C164.326 126.125 169.846 126.114 173.249 128.078L201.489 144.379C203.196 145.361 204.132 146.683 204.132 148.109C204.132 149.536 203.196 150.869 201.501 151.851L173.26 168.152C171.565 169.135 169.331 169.626 167.109 169.626H167.086ZM161.251 167.603C164.467 169.462 169.705 169.462 172.921 167.603L201.161 151.302C202.658 150.436 203.488 149.302 203.488 148.109C203.488 146.917 202.658 145.782 201.161 144.917L172.921 128.616C169.705 126.757 164.467 126.757 161.251 128.616L133.011 144.917C131.514 145.782 130.684 146.917 130.684 148.109C130.684 149.302 131.514 150.436 133.011 151.302L161.251 167.603Z" fill="#5351AF"/>
<path d="M210.902 152.541L174.757 173.403C170.524 175.847 163.636 175.847 159.403 173.403L123.258 152.541C121.364 151.454 120.323 150.05 120.124 148.624C119.879 150.39 120.919 152.214 123.258 153.57L159.403 174.443C163.636 176.887 170.524 176.887 174.757 174.443L210.902 153.582C213.241 152.225 214.282 150.413 214.036 148.635C213.837 150.062 212.797 151.465 210.902 152.553V152.541Z" fill="white"/>
<g opacity="0.3">
<path d="M214.071 88.846V80.6604L211.803 79.3975C211.16 83.2681 206.611 85.8056 202.81 86.3435L176.909 101.487L165.601 105.568L129.526 86.9516L130.356 86.4722C127.269 85.0338 125.609 81.7362 123.948 78.731L121.516 80.181L120.077 80.5902V88.9863C120.077 90.5883 121.13 92.1904 123.246 93.4182L159.392 114.28C163.625 116.724 170.512 116.724 174.745 114.28L210.891 93.4182C212.972 92.2138 214.024 90.6468 214.06 89.0682C214.06 88.998 214.06 88.9278 214.06 88.8577L214.071 88.846Z" fill="url(#paint12_linear_367_121)"/>
<path opacity="0.3" d="M202.822 86.3318L176.92 101.475L167.086 105.03V116.104C169.869 116.104 172.64 115.496 174.757 114.268L210.902 93.4065C212.984 92.202 214.036 90.6351 214.071 89.0565C214.071 88.9863 214.071 88.9161 214.071 88.846V80.6604L212.001 79.5144H211.779C211.078 83.3149 206.576 85.8173 202.81 86.3435L202.822 86.3318Z" fill="#0F054C"/>
<path d="M159.403 105.954L123.258 85.0805C119.025 82.6366 119.025 78.6607 123.258 76.2167L159.403 55.3552C163.636 52.9112 170.524 52.9112 174.757 55.3552L210.902 76.2284C215.135 78.6724 215.135 82.6483 210.902 85.0922L174.757 105.954C170.524 108.398 163.636 108.398 159.403 105.954Z" fill="url(#paint13_linear_367_121)"/>
<g opacity="0.3">
<path d="M159.403 105.954L123.258 85.0805C119.025 82.6366 119.025 78.6607 123.258 76.2167L159.403 55.3552C163.636 52.9112 170.524 52.9112 174.757 55.3552L210.902 76.2284C215.135 78.6724 215.135 82.6483 210.902 85.0922L174.757 105.954C170.524 108.398 163.636 108.398 159.403 105.954Z" fill="#0F054C"/>
</g>
</g>
<path d="M167.086 80.9526C164.619 80.9526 162.151 80.4147 160.269 79.3271L124.123 58.4539C122.252 57.3664 121.212 55.9047 121.212 54.3378C121.212 52.7708 122.241 51.3091 124.123 50.2216L160.269 29.36C164.022 27.1967 170.138 27.185 173.892 29.36L210.037 50.2216C211.908 51.3091 212.949 52.7708 212.949 54.3378C212.949 55.9047 211.92 57.3664 210.037 58.4539L173.892 79.3155C172.009 80.403 169.542 80.9409 167.074 80.9409L167.086 80.9526ZM167.086 28.3544C164.736 28.3544 162.385 28.8689 160.596 29.9096L124.451 50.7712C122.779 51.7417 121.855 53.0047 121.855 54.3378C121.855 55.6708 122.779 56.9454 124.451 57.9043L160.596 78.7775C164.174 80.8473 170.009 80.8473 173.588 78.7775L209.733 57.916C211.405 56.9454 212.329 55.6825 212.329 54.3494C212.329 53.0164 211.405 51.7417 209.733 50.7829L173.588 29.9213C171.799 28.8923 169.448 28.3661 167.098 28.3661L167.086 28.3544Z" fill="#42E8E0"/>
<path opacity="0.4" d="M214.071 46.3275V33.9556L211.803 32.6927C211.16 36.5633 206.611 39.1008 202.81 39.6387L176.909 54.782L165.601 58.8631L129.526 40.2468L130.356 39.7673C127.269 38.329 125.609 35.0314 123.948 32.0261L121.516 33.4761L120.077 33.8854V46.4678C120.077 48.0699 121.13 49.6719 123.246 50.8997L159.392 71.7613C163.625 74.2052 170.512 74.2052 174.745 71.7613L210.891 50.8997C212.972 49.6953 214.024 48.1283 214.06 46.5497C214.06 46.4795 214.06 46.4094 214.06 46.3392L214.071 46.3275Z" fill="#42E8E0"/>
<path d="M214.071 35.324V27.1384L211.803 25.8755C211.16 29.7344 206.611 32.2837 202.81 32.8216L176.909 47.9649L165.601 52.046L129.526 33.4296L130.356 32.9502C127.269 31.5119 125.609 28.2143 123.948 25.209L121.516 26.659L120.077 27.0683V35.4643C120.077 37.0664 121.13 38.6684 123.246 39.8962L159.392 60.7695C163.625 63.2135 170.512 63.2135 174.745 60.7695L210.891 39.9079C212.972 38.7035 214.024 37.1365 214.06 35.5579C214.06 35.4877 214.06 35.4176 214.06 35.3474L214.071 35.324Z" fill="url(#paint14_linear_367_121)"/>
<path opacity="0.3" d="M202.822 32.8213L176.92 47.9647L167.086 51.5195V62.5934C169.869 62.5934 172.64 61.9854 174.757 60.7575L210.902 39.896C212.984 38.6916 214.036 37.1246 214.071 35.5459C214.071 35.4758 214.071 35.4056 214.071 35.3355V27.1499L212.001 26.0039H211.779C211.078 29.8044 206.576 32.3068 202.81 32.833L202.822 32.8213Z" fill="#0F054C"/>
<path d="M130.368 32.95L164.619 13.1759C165.975 12.3925 168.174 12.3925 169.53 13.1759L203.184 32.5991L202.81 32.8213C206.611 32.2951 211.159 29.7459 211.803 25.8753L174.032 4.87343L163.04 1.97339L154.094 7.23555L123.948 25.2087C125.62 28.214 127.281 31.5116 130.356 32.95H130.368Z" fill="url(#paint15_linear_367_121)"/>
<path opacity="0.3" d="M167.086 3.03752L163.052 1.97339L154.106 7.23555L123.96 25.2087C125.632 28.214 127.292 31.5116 130.368 32.95L164.619 13.1759C165.297 12.79 166.185 12.5913 167.074 12.5913V3.03752H167.086Z" fill="#0F054C"/>
<path d="M159.403 52.4316L123.258 31.5583C119.025 29.1143 119.025 25.1385 123.258 22.6945L159.403 1.83298C163.636 -0.610995 170.524 -0.610995 174.757 1.83298L210.902 22.7062C215.135 25.1502 215.135 29.126 210.902 31.57L174.757 52.4316C170.524 54.8755 163.636 54.8755 159.403 52.4316ZM169.53 4.84995C168.173 4.06647 165.975 4.06647 164.618 4.84995L128.473 25.7115C127.117 26.495 127.117 27.7696 128.473 28.553L164.618 49.4263C165.975 50.2098 168.173 50.2098 169.53 49.4263L205.675 28.5647C207.031 27.7813 207.031 26.5067 205.675 25.7232L169.53 4.84995Z" fill="url(#paint16_linear_367_121)"/>
<path d="M205.687 25.7233L169.542 4.85006C168.185 4.06658 165.987 4.06658 164.63 4.85006L128.485 25.7116C127.585 26.2378 127.281 26.9745 127.585 27.6411C127.737 27.3136 128.029 26.9979 128.485 26.729L164.63 5.86741C165.987 5.08394 168.185 5.08394 169.542 5.86741L205.687 26.729C206.143 26.9862 206.435 27.3019 206.587 27.6411C206.891 26.9745 206.587 26.2378 205.687 25.7116V25.7233Z" fill="white"/>
<path d="M210.902 31.5702L174.757 52.4317C170.524 54.8757 163.636 54.8757 159.403 52.4317L123.258 31.5585C121.364 30.471 120.323 29.0677 120.124 27.6411C119.879 29.4069 120.919 31.2311 123.258 32.5875L159.403 53.4608C163.636 55.9047 170.524 55.9047 174.757 53.4608L210.902 32.5992C213.241 31.2428 214.282 29.4302 214.036 27.6528C213.837 29.0794 212.797 30.4827 210.902 31.5702Z" fill="white"/>
<path d="M160.432 51.847L124.287 30.9737C120.615 28.8572 120.615 25.4076 124.287 23.291L160.432 2.42946C164.104 0.312902 170.068 0.312902 173.74 2.42946L209.885 23.3027C213.557 25.4192 213.557 28.8689 209.885 30.9854L173.74 51.847C170.068 53.9635 164.104 53.9635 160.432 51.847ZM170.559 4.26537C168.641 3.15447 165.519 3.15447 163.601 4.26537L127.456 25.1269C125.538 26.2378 125.538 28.0386 127.456 29.1378L163.601 50.0111C165.519 51.122 168.641 51.122 170.559 50.0111L206.704 29.1495C208.622 28.0386 208.622 26.2378 206.704 25.1386L170.559 4.26537Z" fill="url(#paint17_linear_367_121)"/>
<path opacity="0.4" d="M169.542 4.85006C168.185 4.06658 165.987 4.06658 164.63 4.85006L128.485 25.7116C127.129 26.4951 127.129 27.7697 128.485 28.5532L164.63 49.4264C165.987 50.2099 168.185 50.2099 169.542 49.4264L205.687 28.5649C207.043 27.7814 207.043 26.5068 205.687 25.7233L169.542 4.85006Z" fill="#42E8E0"/>
<g opacity="0.2">
<path d="M43.788 89.2666V132.451C43.7997 133.387 44.3726 134.276 45.5303 134.954L81.4065 155.675C83.9908 157.172 88.5046 156.985 91.4865 155.254C93.1587 154.283 93.9889 153.044 93.9539 151.875V108.678L43.788 89.2666Z" fill="url(#paint18_linear_367_121)"/>
<path opacity="0.3" d="M84.0961 156.529C86.505 156.891 89.3699 156.459 91.4865 155.242C93.1587 154.272 93.9889 153.032 93.9538 151.863V108.667L84.2832 104.925H84.1078V156.517L84.0961 156.529Z" fill="#24126A"/>
<path d="M81.4064 112.479L45.5302 91.7575C42.9459 90.2607 43.2733 87.6647 46.2552 85.9458C49.2371 84.2268 53.7508 84.0397 56.3352 85.5248L92.2114 106.246C94.7957 107.743 94.4683 110.339 91.4864 112.058C88.5045 113.777 83.9907 113.964 81.4064 112.479Z" fill="url(#paint19_linear_367_121)"/>
</g>
<path d="M44.7604 129.061L0 154.883L0.315544 155.43L45.0759 129.608L44.7604 129.061Z" fill="#42E8E0"/>
</g>
<defs>
<linearGradient id="paint0_linear_367_121" x1="227.355" y1="126.652" x2="301.926" y2="169.696" gradientUnits="userSpaceOnUse">
<stop stop-color="#BCBEFF"/>
<stop offset="0.23" stop-color="#AAADF7"/>
<stop offset="0.68" stop-color="#7B82E5"/>
<stop offset="1" stop-color="#5761D7"/>
</linearGradient>
<linearGradient id="paint1_linear_367_121" x1="218.012" y1="142.917" x2="311.994" y2="142.917" gradientUnits="userSpaceOnUse">
<stop stop-color="#E9E9FD"/>
<stop offset="0.36" stop-color="#D2D2F9"/>
<stop offset="0.71" stop-color="#C4C3F6"/>
<stop offset="1" stop-color="#C0BFF6"/>
</linearGradient>
<linearGradient id="paint2_linear_367_121" x1="227.355" y1="71.7615" x2="301.926" y2="114.818" gradientUnits="userSpaceOnUse">
<stop stop-color="#BCBEFF"/>
<stop offset="0.23" stop-color="#AAADF7"/>
<stop offset="0.68" stop-color="#7B82E5"/>
<stop offset="1" stop-color="#5761D7"/>
</linearGradient>
<linearGradient id="paint3_linear_367_121" x1="218.012" y1="88.039" x2="1.18746" y2="88.039" gradientUnits="userSpaceOnUse">
<stop stop-color="#E9E9FD"/>
<stop offset="0.36" stop-color="#D2D2F9"/>
<stop offset="0.71" stop-color="#C4C3F6"/>
<stop offset="1" stop-color="#C0BFF6"/>
</linearGradient>
<linearGradient id="paint4_linear_367_121" x1="32.597" y1="126.652" x2="107.168" y2="169.696" gradientUnits="userSpaceOnUse">
<stop stop-color="#BCBEFF"/>
<stop offset="0.23" stop-color="#AAADF7"/>
<stop offset="0.68" stop-color="#7B82E5"/>
<stop offset="1" stop-color="#5761D7"/>
</linearGradient>
<linearGradient id="paint5_linear_367_121" x1="23.2538" y1="-101.796" x2="117.236" y2="-101.796" gradientUnits="userSpaceOnUse">
<stop stop-color="#E9E9FD"/>
<stop offset="0.36" stop-color="#D2D2F9"/>
<stop offset="0.71" stop-color="#C4C3F6"/>
<stop offset="1" stop-color="#C0BFF6"/>
</linearGradient>
<linearGradient id="paint6_linear_367_121" x1="32.597" y1="71.7615" x2="107.168" y2="114.818" gradientUnits="userSpaceOnUse">
<stop stop-color="#BCBEFF"/>
<stop offset="0.23" stop-color="#AAADF7"/>
<stop offset="0.68" stop-color="#7B82E5"/>
<stop offset="1" stop-color="#5761D7"/>
</linearGradient>
<linearGradient id="paint7_linear_367_121" x1="23.2536" y1="88.039" x2="117.236" y2="88.039" gradientUnits="userSpaceOnUse">
<stop stop-color="#E9E9FD"/>
<stop offset="0.36" stop-color="#D2D2F9"/>
<stop offset="0.71" stop-color="#C4C3F6"/>
<stop offset="1" stop-color="#C0BFF6"/>
</linearGradient>
<linearGradient id="paint8_linear_367_121" x1="129.444" y1="190.71" x2="204.003" y2="233.766" gradientUnits="userSpaceOnUse">
<stop stop-color="#BCBEFF"/>
<stop offset="0.23" stop-color="#AAADF7"/>
<stop offset="0.68" stop-color="#7B82E5"/>
<stop offset="1" stop-color="#5761D7"/>
</linearGradient>
<linearGradient id="paint9_linear_367_121" x1="120.089" y1="206.987" x2="214.071" y2="206.987" gradientUnits="userSpaceOnUse">
<stop stop-color="#E9E9FD"/>
<stop offset="0.36" stop-color="#D2D2F9"/>
<stop offset="0.71" stop-color="#C4C3F6"/>
<stop offset="1" stop-color="#C0BFF6"/>
</linearGradient>
<linearGradient id="paint10_linear_367_121" x1="129.444" y1="131.844" x2="204.003" y2="174.888" gradientUnits="userSpaceOnUse">
<stop stop-color="#BCBEFF"/>
<stop offset="0.23" stop-color="#AAADF7"/>
<stop offset="0.68" stop-color="#7B82E5"/>
<stop offset="1" stop-color="#5761D7"/>
</linearGradient>
<linearGradient id="paint11_linear_367_121" x1="120.089" y1="148.109" x2="214.071" y2="148.109" gradientUnits="userSpaceOnUse">
<stop stop-color="#E9E9FD"/>
<stop offset="0.36" stop-color="#D2D2F9"/>
<stop offset="0.71" stop-color="#C4C3F6"/>
<stop offset="1" stop-color="#C0BFF6"/>
</linearGradient>
<linearGradient id="paint12_linear_367_121" x1="129.444" y1="64.3828" x2="204.003" y2="107.427" gradientUnits="userSpaceOnUse">
<stop stop-color="#BCBEFF"/>
<stop offset="0.23" stop-color="#AAADF7"/>
<stop offset="0.68" stop-color="#7B82E5"/>
<stop offset="1" stop-color="#5761D7"/>
</linearGradient>
<linearGradient id="paint13_linear_367_121" x1="120.089" y1="80.6486" x2="214.071" y2="80.6486" gradientUnits="userSpaceOnUse">
<stop stop-color="#E9E9FD"/>
<stop offset="0.36" stop-color="#D2D2F9"/>
<stop offset="0.71" stop-color="#C4C3F6"/>
<stop offset="1" stop-color="#C0BFF6"/>
</linearGradient>
<linearGradient id="paint14_linear_367_121" x1="129.444" y1="10.8608" x2="204.003" y2="53.917" gradientUnits="userSpaceOnUse">
<stop stop-color="#BCBEFF"/>
<stop offset="0.23" stop-color="#AAADF7"/>
<stop offset="0.68" stop-color="#7B82E5"/>
<stop offset="1" stop-color="#5761D7"/>
</linearGradient>
<linearGradient id="paint15_linear_367_121" x1="133.911" y1="7.96056" x2="200.413" y2="46.3626" gradientUnits="userSpaceOnUse">
<stop offset="0.24" stop-color="#5761D7"/>
<stop offset="0.39" stop-color="#7A81E5"/>
<stop offset="0.55" stop-color="#979BF0"/>
<stop offset="0.7" stop-color="#ABAEF8"/>
<stop offset="0.85" stop-color="#B7BAFD"/>
<stop offset="1" stop-color="#BCBEFF"/>
</linearGradient>
<linearGradient id="paint16_linear_367_121" x1="120.089" y1="27.1381" x2="214.071" y2="27.1381" gradientUnits="userSpaceOnUse">
<stop stop-color="#E9E9FD"/>
<stop offset="0.36" stop-color="#D2D2F9"/>
<stop offset="0.71" stop-color="#C4C3F6"/>
<stop offset="1" stop-color="#C0BFF6"/>
</linearGradient>
<linearGradient id="paint17_linear_367_121" x1="121.527" y1="27.1382" x2="212.633" y2="27.1382" gradientUnits="userSpaceOnUse">
<stop stop-color="#E9E9FD"/>
<stop offset="0.36" stop-color="#D2D2F9"/>
<stop offset="0.71" stop-color="#C4C3F6"/>
<stop offset="1" stop-color="#C0BFF6"/>
</linearGradient>
<linearGradient id="paint18_linear_367_121" x1="50.0675" y1="122.968" x2="100.233" y2="122.968" gradientUnits="userSpaceOnUse">
<stop stop-color="#BCBEFF"/>
<stop offset="0.14" stop-color="#B3B6FB"/>
<stop offset="0.37" stop-color="#9DA2F3"/>
<stop offset="0.65" stop-color="#7981E4"/>
<stop offset="0.87" stop-color="#5761D7"/>
</linearGradient>
<linearGradient id="paint19_linear_367_121" x1="-2.7998" y1="98.9959" x2="120.99" y2="98.9959" gradientUnits="userSpaceOnUse">
<stop stop-color="#E9E9FD"/>
<stop offset="0.36" stop-color="#D2D2F9"/>
<stop offset="0.71" stop-color="#C4C3F6"/>
<stop offset="1" stop-color="#C0BFF6"/>
</linearGradient>
</defs>
</svg>
