<svg width="455" height="455" viewBox="0 0 455 455" fill="none" xmlns="http://www.w3.org/2000/svg">
<path d="M346.029 224.632C346.029 291.678 291.678 346.029 224.632 346.029C157.587 346.029 103.235 291.678 103.235 224.632C103.235 157.587 157.587 103.235 224.632 103.235C291.678 103.235 346.029 157.587 346.029 224.632ZM115.375 224.632C115.375 284.974 164.291 333.89 224.632 333.89C284.974 333.89 333.89 284.974 333.89 224.632C333.89 164.291 284.974 115.375 224.632 115.375C164.291 115.375 115.375 164.291 115.375 224.632Z" fill="#E9E9E9"/>
<path d="M372.794 225.588C372.794 306.888 306.888 372.794 225.588 372.794C144.289 372.794 78.3823 306.888 78.3823 225.588C78.3823 144.289 144.289 78.3823 225.588 78.3823C306.888 78.3823 372.794 144.289 372.794 225.588ZM93.1029 225.588C93.1029 298.758 152.419 358.073 225.588 358.073C298.758 358.073 358.073 298.758 358.073 225.588C358.073 152.419 298.758 93.1029 225.588 93.1029C152.419 93.1029 93.1029 152.419 93.1029 225.588Z" fill="#E9E9E9"/>
<path d="M397.647 226.544C397.647 321.042 321.042 397.647 226.544 397.647C132.047 397.647 55.4412 321.042 55.4412 226.544C55.4412 132.047 132.047 55.4412 226.544 55.4412C321.042 55.4412 397.647 132.047 397.647 226.544ZM70.2292 226.544C70.2292 312.874 140.214 382.859 226.544 382.859C312.874 382.859 382.859 312.874 382.859 226.544C382.859 140.214 312.874 70.2292 226.544 70.2292C140.214 70.2292 70.2292 140.214 70.2292 226.544Z" fill="#E9E9E9"/>
<path d="M426.324 227.5C426.324 337.307 337.307 426.324 227.5 426.324C117.693 426.324 28.6765 337.307 28.6765 227.5C28.6765 117.693 117.693 28.6765 227.5 28.6765C337.307 28.6765 426.324 117.693 426.324 227.5ZM44.1211 227.5C44.1211 328.777 126.223 410.879 227.5 410.879C328.777 410.879 410.879 328.777 410.879 227.5C410.879 126.223 328.777 44.1211 227.5 44.1211C126.223 44.1211 44.1211 126.223 44.1211 227.5Z" fill="#E9E9E9"/>
<path d="M455 227.5C455 353.145 353.145 455 227.5 455C101.855 455 0 353.145 0 227.5C0 101.855 101.855 0 227.5 0C353.145 0 455 101.855 455 227.5ZM16.5008 227.5C16.5008 344.032 110.968 438.499 227.5 438.499C344.032 438.499 438.499 344.032 438.499 227.5C438.499 110.968 344.032 16.5008 227.5 16.5008C110.968 16.5008 16.5008 110.968 16.5008 227.5Z" fill="#E9E9E9"/>
<path d="M31.1625 129.919C27.0821 127.891 22.1155 129.55 20.2367 133.701C0.767347 176.72 -4.86084 224.805 4.25151 271.276C13.8939 320.45 39.5019 365.065 77.0994 398.192C114.697 431.32 162.18 451.108 212.177 454.483C262.173 457.859 311.885 444.632 353.594 416.858C395.303 389.084 426.675 348.316 442.839 300.885C459.003 253.453 459.055 202.012 442.986 154.548C426.917 107.084 395.627 66.253 353.974 38.3953C314.61 12.0688 268.073 -1.27957 220.874 0.0964408C216.319 0.229222 212.874 4.17226 213.172 8.71908C213.469 13.2659 217.397 16.6935 221.952 16.5736C265.523 15.427 308.458 27.8054 344.801 52.1112C383.433 77.9484 412.453 115.818 427.357 159.839C442.26 203.86 442.212 251.571 427.22 295.562C412.229 339.553 383.132 377.364 344.448 403.124C305.765 428.884 259.658 441.15 213.288 438.02C166.918 434.89 122.879 416.537 88.0081 385.812C53.1375 355.087 29.3869 313.708 20.4439 268.101C12.031 225.197 17.1652 180.809 35.0239 141.05C36.8908 136.893 35.2429 131.947 31.1625 129.919Z" fill="#0044AA" fill-opacity="0.1"/>
<path d="M212.948 36.9536C212.624 32.7011 215.808 28.9748 220.07 28.8153C257.336 27.4214 294.301 36.5372 326.709 55.197C361.351 75.143 389.176 105.068 406.553 141.067C423.931 177.065 430.054 217.466 424.123 256.998C418.193 296.529 400.484 333.355 373.308 362.669C346.132 391.984 310.751 412.427 271.782 421.33C232.812 430.233 192.064 427.182 154.854 412.577C117.644 397.971 85.701 372.489 63.1924 339.455C42.1355 308.551 30.2504 272.38 28.8224 235.116C28.6591 230.854 32.1339 227.397 36.3988 227.399C40.6637 227.401 44.1023 230.863 44.2796 235.124C45.7005 269.282 56.6475 302.42 75.9558 330.758C96.7159 361.226 126.178 384.729 160.497 398.2C194.816 411.671 232.399 414.484 268.342 406.273C304.284 398.062 336.917 379.207 361.982 352.169C387.047 325.132 403.38 291.167 408.85 254.706C414.319 218.246 408.672 180.983 392.644 147.781C376.617 114.578 350.953 86.9781 319.003 68.5814C289.286 51.4713 255.415 43.0615 221.247 44.2277C216.984 44.3732 213.273 41.2062 212.948 36.9536Z" fill="#D1003F" fill-opacity="0.1"/>
<path d="M216.142 63.166C215.883 59.0906 218.977 55.5598 223.06 55.4766C256.291 54.7994 289.061 63.8183 317.326 81.51C347.683 100.512 371.313 128.56 384.885 161.703C398.457 194.845 401.287 231.411 392.977 266.247C384.667 301.083 365.635 332.434 338.563 355.881C311.491 379.328 277.745 393.689 242.079 396.94C206.413 400.192 170.626 392.17 139.761 374.005C108.895 355.841 84.5078 328.449 70.0349 295.689C56.5597 265.189 52.3117 231.467 57.7264 198.672C58.3917 194.643 62.3281 192.085 66.3247 192.924C70.3212 193.762 72.8629 197.68 72.2141 201.712C67.4251 231.474 71.3374 262.044 83.5616 289.713C96.7836 319.641 119.063 344.666 147.261 361.261C175.459 377.855 208.153 385.184 240.736 382.213C273.32 379.243 304.15 366.123 328.881 344.703C353.613 323.282 371 294.641 378.592 262.816C386.185 230.99 383.599 197.585 371.2 167.307C358.801 137.029 337.213 111.404 309.48 94.045C283.839 77.9957 254.14 69.7589 224 70.2498C219.917 70.3163 216.402 67.2413 216.142 63.166Z" fill="#D2D9E3"/>
<path d="M217.022 86.0052C216.773 81.9479 219.861 78.4376 223.926 78.3917C247.345 78.1271 270.527 83.4549 291.53 93.9778C314.729 105.602 334.444 123.151 348.676 144.848C362.908 166.545 371.152 191.619 372.573 217.528C373.994 243.437 368.541 269.262 356.766 292.385C344.992 315.508 327.314 335.108 305.525 349.199C283.736 363.29 258.609 371.371 232.691 372.623C206.773 373.875 180.984 368.254 157.938 356.329C137.075 345.533 119.13 329.919 105.57 310.824C103.216 307.51 104.238 302.947 107.666 300.762C111.094 298.577 115.627 299.598 117.999 302.899C130.153 319.812 146.145 333.652 164.703 343.255C185.445 353.987 208.655 359.046 231.981 357.919C255.307 356.792 277.921 349.52 297.532 336.838C317.142 324.156 333.052 306.516 343.649 285.706C354.246 264.895 359.153 241.653 357.875 218.334C356.596 195.015 349.176 172.449 336.367 152.922C323.558 133.395 305.815 117.6 284.936 107.139C266.254 97.7785 245.655 92.9855 224.828 93.1051C220.763 93.1284 217.271 90.0626 217.022 86.0052Z" fill="#E7D2D8"/>
<path d="M217.724 109.512C217.524 106.166 220.075 103.275 223.427 103.241C247.345 103.003 270.852 109.839 290.961 122.958C312.768 137.184 329.423 158.044 338.468 182.459C347.514 206.874 348.47 233.551 341.195 258.551C333.92 283.551 318.8 305.549 298.068 321.299C277.335 337.05 252.087 345.717 226.052 346.021C200.017 346.326 174.574 338.252 153.478 322.991C132.383 307.73 116.753 286.091 108.895 261.268C101.65 238.377 101.367 213.898 108.01 190.92C108.941 187.7 112.411 186.017 115.581 187.108C118.751 188.199 120.419 191.649 119.506 194.875C113.699 215.386 114.009 237.197 120.469 257.604C127.541 279.945 141.608 299.42 160.594 313.155C179.58 326.89 202.479 334.156 225.91 333.882C249.342 333.608 272.064 325.808 290.724 311.633C309.384 297.458 322.991 277.659 329.539 255.159C336.086 232.659 335.226 208.65 327.085 186.676C318.944 164.703 303.954 145.928 284.328 133.125C266.4 121.43 245.471 115.282 224.154 115.376C220.802 115.391 217.925 112.859 217.724 109.512Z" fill="#D2D9E3"/>
<path d="M160 211.24V239.192H163.714V227.251H172.786C173.698 227.251 174.428 227.395 174.975 227.682C175.523 227.943 175.966 228.308 176.305 228.778C176.644 229.222 176.891 229.757 177.048 230.383C177.204 230.984 177.334 231.623 177.439 232.302C177.569 232.98 177.647 233.672 177.673 234.376C177.699 235.081 177.725 235.747 177.751 236.373C177.777 236.973 177.83 237.521 177.908 238.017C178.012 238.513 178.195 238.905 178.455 239.192H182.6C182.209 238.722 181.909 238.187 181.701 237.587C181.518 236.96 181.375 236.308 181.27 235.629C181.166 234.951 181.101 234.259 181.075 233.554C181.049 232.85 181.01 232.158 180.958 231.479C180.879 230.801 180.762 230.148 180.606 229.522C180.475 228.896 180.254 228.335 179.941 227.839C179.654 227.317 179.25 226.873 178.729 226.508C178.234 226.142 177.582 225.881 176.774 225.725V225.646C178.468 225.177 179.693 224.302 180.449 223.023C181.231 221.745 181.622 220.257 181.622 218.561C181.622 216.29 180.866 214.502 179.355 213.197C177.869 211.892 175.796 211.24 173.138 211.24H160ZM171.456 224.12H163.714V214.372H172.942C174.689 214.372 175.953 214.815 176.735 215.703C177.517 216.59 177.908 217.738 177.908 219.148C177.908 220.166 177.725 221.001 177.36 221.653C177.022 222.28 176.552 222.789 175.953 223.18C175.379 223.545 174.702 223.793 173.92 223.924C173.138 224.054 172.317 224.12 171.456 224.12Z" fill="black"/>
<path d="M186.728 211.24V239.192H190.247V216.76H190.325L204.909 239.192H208.975V211.24H205.457V233.907H205.378L190.677 211.24H186.728Z" fill="black"/>
<path d="M218.699 223.258V214.372H226.128C226.936 214.372 227.692 214.424 228.396 214.528C229.126 214.607 229.764 214.802 230.312 215.116C230.859 215.429 231.289 215.872 231.602 216.447C231.915 217.021 232.071 217.804 232.071 218.795C232.071 220.283 231.602 221.405 230.663 222.162C229.751 222.893 228.239 223.258 226.128 223.258H218.699ZM214.984 211.24V239.192H228.474C229.855 239.192 231.068 238.97 232.11 238.526C233.179 238.056 234.065 237.456 234.769 236.725C235.499 235.968 236.046 235.107 236.411 234.142C236.776 233.176 236.959 232.184 236.959 231.166C236.959 229.444 236.502 227.982 235.59 226.782C234.678 225.581 233.361 224.798 231.641 224.433V224.354C232.97 223.833 233.987 223.036 234.691 221.966C235.421 220.87 235.786 219.578 235.786 218.091C235.786 216.681 235.46 215.494 234.808 214.528C234.182 213.563 233.414 212.806 232.501 212.258C232.084 211.997 231.576 211.801 230.976 211.67C230.403 211.54 229.777 211.449 229.099 211.396C228.422 211.318 227.731 211.279 227.027 211.279C226.349 211.253 225.711 211.24 225.111 211.24H214.984ZM218.699 236.06V226.39H227.184C227.966 226.39 228.722 226.468 229.451 226.625C230.181 226.756 230.82 227.004 231.367 227.369C231.941 227.708 232.397 228.178 232.736 228.778C233.075 229.378 233.244 230.135 233.244 231.049C233.244 232.615 232.775 233.841 231.836 234.729C230.924 235.616 229.647 236.06 228.005 236.06H218.699Z" fill="black"/>
<path d="M247.364 212.692H251.988V213.556H250.172V218.404H249.172V213.556H247.364V212.692Z" fill="black"/>
<path d="M252.65 212.692H256.762V213.556H253.65V215.052H256.53V215.868H253.65V217.54H256.818V218.404H252.65V212.692Z" fill="black"/>
<path d="M259.217 212.692H260.281L262.481 218.404H261.409L260.873 216.892H258.593L258.057 218.404H257.025L259.217 212.692ZM258.865 216.132H260.609L259.753 213.676H259.729L258.865 216.132Z" fill="black"/>
<path d="M263.009 212.692H264.417L265.993 217.164H266.009L267.545 212.692H268.937V218.404H267.985V213.996H267.969L266.385 218.404H265.561L263.977 213.996H263.961V218.404H263.009V212.692Z" fill="black"/>
<rect x="243.3" y="208.404" width="52.7" height="23.8293" rx="11.9146" stroke="black" stroke-width="0.8"/>
</svg>
