<svg width="24" height="24" viewBox="0 0 24 24" fill="none" xmlns="http://www.w3.org/2000/svg">
<path opacity="0.8" d="M11.9839 8.67972C11.6479 8.67972 11.4119 8.61172 11.2759 8.47572C11.1479 8.33972 11.0839 8.17172 11.0839 7.97172V7.71972C11.0839 7.51972 11.1479 7.35172 11.2759 7.21572C11.4119 7.07972 11.6439 7.01172 11.9719 7.01172C12.3079 7.01172 12.5399 7.07972 12.6679 7.21572C12.8039 7.35172 12.8719 7.51972 12.8719 7.71972V7.97172C12.8719 8.17172 12.8039 8.33972 12.6679 8.47572C12.5399 8.61172 12.3119 8.67972 11.9839 8.67972ZM9.21191 14.9437H11.3239V10.8637H9.21191V9.80772H12.6319V14.9437H14.6119V15.9997H9.21191V14.9437Z" fill="#002B6B"/>
<rect x="1" y="1" width="22" height="22" rx="11" stroke="#DEE3EC"/>
</svg>
